# xmcd CD database file
#
# Track frame offsets:
#	150
#	16422
#	38545
#	57306
#	80604
#	96262
#	122494
#	143573
#	160052
#	177532
#	193721
#	216082
#
# Disc length: 3125 seconds
#
# Revision: 0
# Processed by: cddbd v1.5.2PL0 Copyright (c) Steve Scherf et al.
# Submitted via: CDex 1.70beta3
#
DISCID=9d0c330c
DTITLE=WONG WING TSAN - 月の音階
DYEAR=2013
DGENRE=New Age
TTITLE0=月の音階
TTITLE1=夕暮れの窓に映るもの
TTITLE2=ゆれる影
TTITLE3=午後の二面性
TTITLE4=手紙を開けると、聴こえてくる
TTITLE5=夜の鐘から
TTITLE6=音階をまとう
TTITLE7=溶けまどう石
TTITLE8=さわだつみず
TTITLE9=天空回帰
TTITLE10=気流がほどける時
TTITLE11=沈める夢
EXTD=YEAR: 2013
EXTT0=
EXTT1=
EXTT2=
EXTT3=
EXTT4=
EXTT5=
EXTT6=
EXTT7=
EXTT8=
EXTT9=
EXTT10=
EXTT11=
PLAYORDER=
